<svg width="44" height="44" viewBox="0 0 44 44" fill="none" xmlns="http://www.w3.org/2000/svg">
<path fill-rule="evenodd" clip-rule="evenodd" d="M22 33C28.0751 33 33 28.0751 33 22C33 15.9249 28.0751 11 22 11C15.9249 11 11 15.9249 11 22C11 28.0751 15.9249 33 22 33ZM22 29.3333C26.05 29.3333 29.3333 26.05 29.3333 22C29.3333 17.9499 26.05 14.6667 22 14.6667C17.9499 14.6667 14.6667 17.9499 14.6667 22C14.6667 26.05 17.9499 29.3333 22 29.3333Z" fill="white"/>
<path d="M33 9.1665C31.9875 9.1665 31.1667 9.98732 31.1667 10.9998C31.1667 12.0124 31.9875 12.8332 33 12.8332C34.0126 12.8332 34.8334 12.0124 34.8334 10.9998C34.8334 9.98732 34.0126 9.1665 33 9.1665Z" fill="white"/>
<path fill-rule="evenodd" clip-rule="evenodd" d="M3.03227 7.83961C1.83334 10.1926 1.83334 13.2729 1.83334 19.4335V24.5668C1.83334 30.7274 1.83334 33.8077 3.03227 36.1606C4.08688 38.2305 5.76966 39.9133 7.83945 40.9678C10.1925 42.1668 13.2728 42.1668 19.4333 42.1668H24.5667C30.7272 42.1668 33.8076 42.1668 36.1605 40.9678C38.2303 39.9133 39.9131 38.2305 40.9677 36.1606C42.1667 33.8077 42.1667 30.7274 42.1667 24.5668V19.4335C42.1667 13.2729 42.1667 10.1926 40.9677 7.83961C39.9131 5.76981 38.2303 4.08703 36.1605 3.03242C33.8076 1.8335 30.7272 1.8335 24.5667 1.8335H19.4333C13.2728 1.8335 10.1925 1.8335 7.83945 3.03242C5.76966 4.08703 4.08688 5.76981 3.03227 7.83961ZM24.5667 5.50016H19.4333C16.2926 5.50016 14.1575 5.50302 12.5072 5.63785C10.8996 5.76919 10.0775 6.00724 9.50408 6.29944C8.12423 7.00252 7.00237 8.12438 6.29929 9.50424C6.00709 10.0777 5.76903 10.8998 5.63769 12.5073C5.50287 14.1576 5.50001 16.2927 5.50001 19.4335V24.5668C5.50001 27.7077 5.50287 29.8426 5.63769 31.493C5.76903 33.1006 6.00709 33.9227 6.29929 34.4962C7.00237 35.8759 8.12423 36.9977 9.50408 37.7008C10.0775 37.9931 10.8996 38.2312 12.5072 38.3625C14.1575 38.4972 16.2926 38.5002 19.4333 38.5002H24.5667C27.7075 38.5002 29.8425 38.4972 31.4928 38.3625C33.1005 38.2312 33.9225 37.9931 34.496 37.7008C35.8758 36.9977 36.9976 35.8759 37.7007 34.4962C37.9929 33.9227 38.2311 33.1006 38.3623 31.493C38.4971 29.8426 38.5 27.7077 38.5 24.5668V19.4335C38.5 16.2927 38.4971 14.1576 38.3623 12.5073C38.2311 10.8998 37.9929 10.0777 37.7007 9.50424C36.9976 8.12438 35.8758 7.00252 34.496 6.29944C33.9225 6.00724 33.1005 5.76919 31.4928 5.63785C29.8425 5.50302 27.7075 5.50016 24.5667 5.50016Z" fill="white"/>
</svg>
