<svg width="38" height="36" viewBox="0 0 38 36" fill="none" xmlns="http://www.w3.org/2000/svg">
<g clip-path="url(#clip0_32_41)">
<path fill-rule="evenodd" clip-rule="evenodd" d="M8.64678 35.1715V11.999H0.517676V35.1714H8.64678V35.1715ZM4.58308 8.8363C7.41698 8.8363 9.18227 7.05542 9.18227 4.83179C9.12868 2.55873 7.41698 0.828125 4.63622 0.828125C1.85502 0.828195 0.0371094 2.5588 0.0371094 4.83186C0.0371094 7.05549 1.80144 8.83637 4.52957 8.83637L4.58308 8.8363ZM13.1459 35.1715C13.1459 35.1715 13.2526 14.1732 13.1459 11.999H21.2763V15.3595H21.2223C22.2914 13.7782 24.2174 11.4549 28.6026 11.4549C33.9527 11.4549 37.9628 14.7668 37.9628 21.8845V35.1716H29.8338V22.7749C29.8338 19.66 28.6576 17.5344 25.7149 17.5344C23.4695 17.5344 22.1313 18.9674 21.5436 20.3526C21.3286 20.8456 21.2763 21.5381 21.2763 22.2307V35.1715H13.1459Z" fill="white"/>
</g>
<defs>
<clipPath id="clip0_32_41">
<rect width="38" height="36" fill="white"/>
</clipPath>
</defs>
</svg>
