<svg width="30" height="30" viewBox="0 0 30 30" fill="none" xmlns="http://www.w3.org/2000/svg">
<g clip-path="url(#clip0_34_79)">
<path fill-rule="evenodd" clip-rule="evenodd" d="M15 14.0625C13.4466 14.0625 12.1875 12.8034 12.1875 11.25C12.1875 9.69656 13.4466 8.4375 15 8.4375C16.5534 8.4375 17.8125 9.69656 17.8125 11.25C17.8125 12.8034 16.5534 14.0625 15 14.0625ZM15 6.5625C12.4116 6.5625 10.3125 8.66062 10.3125 11.25C10.3125 13.8394 12.4116 15.9375 15 15.9375C17.5884 15.9375 19.6875 13.8394 19.6875 11.25C19.6875 8.66062 17.5884 6.5625 15 6.5625ZM15 27.1875C13.4409 27.1959 5.625 15.1697 5.625 11.25C5.625 6.07312 9.82219 1.875 15 1.875C20.1778 1.875 24.375 6.07312 24.375 11.25C24.375 15.1172 16.5347 27.1959 15 27.1875ZM15 0C8.78719 0 3.75 5.03719 3.75 11.25C3.75 15.9544 13.1297 30.0103 15 30C16.8413 30.0103 26.25 15.8906 26.25 11.25C26.25 5.03719 21.2128 0 15 0Z" fill="white"/>
</g>
<defs>
<clipPath id="clip0_34_79">
<rect width="30" height="30" fill="white"/>
</clipPath>
</defs>
</svg>
