<svg width="30" height="29" viewBox="0 0 30 29" fill="none" xmlns="http://www.w3.org/2000/svg">
<path d="M20.5824 19.8159L21.2832 19.1059L19.656 17.4385L18.9555 18.1485L20.5824 19.8159ZM23.6362 18.8086L26.5752 20.4366L27.6773 18.3709L24.7383 16.7429L23.6362 18.8086ZM27.141 23.6723L24.9557 25.8865L26.5826 27.5539L28.768 25.3397L27.141 23.6723ZM23.6241 26.5994C21.3936 26.8112 15.623 26.6224 9.37506 20.2921L7.74804 21.9595C14.5661 28.8675 21.0553 29.2048 23.8382 28.9405L23.6241 26.5994ZM9.37506 20.2921C3.41952 14.258 2.43299 9.18288 2.31019 6.98111L0.00638223 7.11453C0.160925 9.88567 1.38248 15.51 7.74804 21.9595L9.37506 20.2921ZM11.4908 10.6043L11.932 10.1572L10.305 8.48987L9.86381 8.9369L11.4908 10.6043ZM12.2832 4.45888L10.3434 1.81852L8.49617 3.22764L10.4359 5.86802L12.2832 4.45888ZM3.81923 1.24383L1.40464 3.69027L3.03166 5.35763L5.44625 2.91119L3.81923 1.24383ZM10.6773 9.77058C9.86381 8.9369 9.8627 8.93801 9.8616 8.93914C9.86123 8.93952 9.86012 8.94066 9.85937 8.94143C9.85786 8.94298 9.85632 8.94455 9.85477 8.94616C9.85164 8.94941 9.84841 8.95278 9.84509 8.95629C9.83843 8.96333 9.83138 8.97095 9.82397 8.97916C9.80912 8.99557 9.79283 9.01435 9.77539 9.03556C9.74051 9.07796 9.70099 9.13018 9.65946 9.19264C9.57619 9.31787 9.48545 9.48345 9.40846 9.69168C9.25135 10.1166 9.16712 10.6767 9.27272 11.3702C9.47922 12.7266 10.3959 14.5182 12.7442 16.8974L14.3712 15.23C12.1737 13.0035 11.6502 11.6485 11.5529 11.0097C11.5066 10.7058 11.5546 10.5561 11.5679 10.5207C11.5759 10.4988 11.5797 10.4966 11.5699 10.5115C11.5649 10.5188 11.5568 10.5303 11.544 10.5457C11.5377 10.5535 11.5302 10.5622 11.5214 10.572C11.5169 10.5768 11.5123 10.582 11.5071 10.5873C11.5046 10.59 11.502 10.5928 11.4992 10.5956C11.4979 10.597 11.4965 10.5984 11.4951 10.5999C11.4945 10.6006 11.4934 10.6017 11.4929 10.6021C11.4919 10.6032 11.4908 10.6043 10.6773 9.77058ZM12.7442 16.8974C15.0933 19.2774 16.8598 20.2037 18.1931 20.4122C18.8744 20.5186 19.4238 20.4336 19.8405 20.2755C20.0448 20.1979 20.2075 20.1065 20.3306 20.0225C20.3921 19.9805 20.4435 19.9405 20.4852 19.9052C20.5061 19.8877 20.5246 19.8712 20.5408 19.8562C20.5489 19.8486 20.5564 19.8416 20.5634 19.8348C20.5669 19.8314 20.5701 19.8281 20.5734 19.825C20.5749 19.8234 20.5764 19.8218 20.578 19.8203C20.5787 19.8195 20.58 19.8184 20.5803 19.8181C20.5814 19.817 20.5824 19.8159 19.769 18.9821C18.9555 18.1485 18.9566 18.1474 18.9576 18.1463C18.9579 18.146 18.959 18.1449 18.9598 18.1441C18.9612 18.1427 18.9626 18.1413 18.9639 18.1399C18.9669 18.1372 18.9695 18.1345 18.9721 18.1319C18.9775 18.1267 18.9826 18.122 18.9873 18.1174C18.9969 18.1087 19.0055 18.101 19.0132 18.0947C19.0282 18.0819 19.0395 18.0737 19.0464 18.0689C19.0607 18.0591 19.0578 18.0635 19.035 18.0721C18.9973 18.0864 18.8464 18.1355 18.543 18.088C17.9072 17.9888 16.5681 17.4558 14.3712 15.23L12.7442 16.8974ZM10.3434 1.81852C8.77535 -0.315823 5.69191 -0.653549 3.81923 1.24383L5.44625 2.91119C6.26416 2.08248 7.7168 2.16683 8.49617 3.22764L10.3434 1.81852ZM2.31019 6.98111C2.27993 6.43857 2.52412 5.87184 3.03166 5.35763L1.40464 3.69027C0.578049 4.52776 -0.0717814 5.71329 0.00638223 7.11453L2.31019 6.98111ZM24.9557 25.8865C24.5329 26.3149 24.0797 26.5561 23.6241 26.5994L23.8382 28.9405C24.9683 28.8331 25.8942 28.2514 26.5826 27.5539L24.9557 25.8865ZM11.932 10.1572C13.4465 8.62272 13.5591 6.19554 12.2832 4.45888L10.4359 5.86802C11.0567 6.71289 10.9644 7.82183 10.305 8.48987L11.932 10.1572ZM26.5752 20.4366C27.8333 21.1335 28.0293 22.7723 27.141 23.6723L28.768 25.3397C30.8299 23.2507 30.1941 19.7649 27.6773 18.3709L26.5752 20.4366ZM21.2832 19.1059C21.8739 18.5075 22.8247 18.3592 23.6362 18.8086L24.7383 16.7429C23.0713 15.8194 21.0026 16.0745 19.656 17.4385L21.2832 19.1059Z" fill="white"/>
</svg>
