<svg width="121" height="122" viewBox="0 0 121 122" fill="none" xmlns="http://www.w3.org/2000/svg">
<ellipse cx="60.5" cy="61" rx="60.5" ry="61" fill="#008DD5"/>
<path d="M77.5 43.5C70.5 43.5 65 49 65 56C65 63 70.5 68.5 77.5 68.5C78.25 68.5 79.25 68.5 80 68.25C76.75 71.5 72.5 73.5 67.5 73.5C66 73.5 65 74.5 65 76C65 77.5 66 78.5 67.5 78.5C80 78.5 90 68.5 90 56C90 49 84.5 43.5 77.5 43.5Z" fill="white"/>
<path d="M42.5 43.5C35.5 43.5 30 49 30 56C30 63 35.5 68.5 42.5 68.5C43.25 68.5 44.25 68.5 45 68.25C41.75 71.5 37.5 73.5 32.5 73.5C31 73.5 30 74.5 30 76C30 77.5 31 78.5 32.5 78.5C45 78.5 55 68.5 55 56C55 49 49.5 43.5 42.5 43.5Z" fill="white"/>
</svg>
