<svg width="44" height="44" viewBox="0 0 44 44" fill="none" xmlns="http://www.w3.org/2000/svg">
<path fill-rule="evenodd" clip-rule="evenodd" d="M13.838 39.5995C30.4414 39.5995 39.523 26.0553 39.523 14.3113C39.523 13.9257 39.523 13.5431 39.4966 13.1619C41.2632 11.9056 42.7878 10.3457 44 8.56097C42.3544 9.28009 40.6054 9.75169 38.8168 9.95961C40.7 8.84845 42.1102 7.10277 42.7856 5.04291C41.0124 6.07825 39.0742 6.80895 37.0524 7.20101C33.6336 3.62278 27.9158 3.44941 24.2792 6.81537C21.9362 8.98569 20.9396 12.2216 21.6678 15.3081C14.41 14.9486 7.6472 11.574 3.0624 6.0226C0.6666 10.0838 1.892 15.2773 5.8586 17.8852C4.422 17.844 3.0162 17.4632 1.76 16.7745V16.8872C1.7622 21.1174 4.7916 24.7599 9.0024 25.5981C7.6736 25.9555 6.2788 26.0073 4.928 25.7495C6.1094 29.3711 9.4996 31.8516 13.3606 31.9231C10.164 34.3967 6.215 35.7398 2.1494 35.7355C1.4322 35.7333 0.715 35.6921 0 35.6077C4.1294 38.2155 8.932 39.5995 13.838 39.593" fill="white"/>
</svg>
