<svg width="40" height="40" viewBox="0 0 40 40" fill="none" xmlns="http://www.w3.org/2000/svg">
<g clip-path="url(#clip0_34_48)">
<path fill-rule="evenodd" clip-rule="evenodd" d="M15.9769 14.8278V26.0514C19.9613 24.1765 23.0472 22.3654 26.6969 20.4127C23.6867 18.7433 19.9613 16.8702 15.9769 14.8278ZM38.182 31.6334C37.4947 32.539 36.3233 33.2438 35.0762 33.4772C31.4105 34.1733 8.54197 34.1753 4.8783 33.4772C3.87822 33.2897 2.98767 32.8365 2.22267 32.1325C-1.00073 29.1407 0.00933236 13.0966 0.786294 10.4977C1.11301 9.37277 1.53538 8.56148 2.0673 8.02894C2.75262 7.32488 3.69093 6.84009 4.76872 6.62269C7.78691 5.99839 23.3361 5.64934 35.0124 6.52894C36.0882 6.71642 37.0405 7.21682 37.7915 7.95082C40.7719 10.9307 40.5687 27.8757 38.182 31.6334Z" fill="white"/>
</g>
<defs>
<clipPath id="clip0_34_48">
<rect width="40" height="40" fill="white" transform="matrix(1 0 0 -1 0 40)"/>
</clipPath>
</defs>
</svg>
